<svg width="25" height="24" viewBox="0 0 25 24" fill="none" xmlns="http://www.w3.org/2000/svg">
<path d="M4.625 19V10C4.625 9.68333 4.69583 9.38333 4.8375 9.1C4.97917 8.81667 5.175 8.58333 5.425 8.4L11.425 3.9C11.775 3.63333 12.175 3.5 12.625 3.5C13.075 3.5 13.475 3.63333 13.825 3.9L19.825 8.4C20.075 8.58333 20.2708 8.81667 20.4125 9.1C20.5542 9.38333 20.625 9.68333 20.625 10V19C20.625 19.55 20.4292 20.0208 20.0375 20.4125C19.6458 20.8042 19.175 21 18.625 21H15.625C15.3417 21 15.1042 20.9042 14.9125 20.7125C14.7208 20.5208 14.625 20.2833 14.625 20V15C14.625 14.7167 14.5292 14.4792 14.3375 14.2875C14.1458 14.0958 13.9083 14 13.625 14H11.625C11.3417 14 11.1042 14.0958 10.9125 14.2875C10.7208 14.4792 10.625 14.7167 10.625 15V20C10.625 20.2833 10.5292 20.5208 10.3375 20.7125C10.1458 20.9042 9.90833 21 9.625 21H6.625C6.075 21 5.60417 20.8042 5.2125 20.4125C4.82083 20.0208 4.625 19.55 4.625 19Z" fill="#1A34FF"/>
</svg>